<svg xmlns="http://www.w3.org/2000/svg" width="16" height="16" viewBox="0 0 16 16" role="img" aria-label="Douyin">
  <rect width="16" height="16" rx="3" fill="#000"/>
  <path fill="#FE2C55" d="M9.6 1.4c.16 1.04.72 1.92 1.56 2.44.5.3 1.08.46 1.68.46v2.04c-1.16 0-2.26-.38-3.16-1.04v3.74a3.78 3.78 0 1 1-3.78-3.78c.2 0 .4.02.6.05v2.1a1.72 1.72 0 1 0 1.2 1.63V1.4h1.9z"/>
  <path fill="#25F4EE" d="M9.2 1.9c.18 1.06.76 1.96 1.62 2.48.5.3 1.08.46 1.66.46v.5c-1.16 0-2.26-.38-3.16-1.04L9.2 1.9z" opacity=".85"/>
</svg>
