<svg xmlns="http://www.w3.org/2000/svg" width="16" height="16" viewBox="0 0 16 16" role="img" aria-label="Exa">
  <rect width="16" height="16" rx="3.2" fill="#5046E5"/>
  <path fill="#fff" d="M3.6 4.2h8.8c.55 0 1 .45 1 1v5.6c0 .55-.45 1-1 1H8.7l1.9 1.9c.3.3.09.81-.34.81H6.24a.48.48 0 0 1-.34-.81L7.8 11.8H3.6c-.55 0-1-.45-1-1V5.2c0-.55.45-1 1-1Z"/>
  <path fill="#5046E5" d="M4.6 5.4h6.8c.22 0 .4.18.4.4v4.4c0 .22-.18.4-.4.4H4.6c-.22 0-.4-.18-.4-.4V5.8c0-.22.18-.4.4-.4Z"/>
  <path fill="#fff" d="M5.6 6.5h4.8v1H5.6zM5.6 8.5h4.8v1H5.6z"/>
</svg>
