<svg xmlns="http://www.w3.org/2000/svg" width="16" height="16" viewBox="0 0 16 16" role="img" aria-label="Stepfun">
  <defs>
    <linearGradient id="sf-g" x1="0" y1="0" x2="16" y2="16" gradientUnits="userSpaceOnUse">
      <stop offset="0" stop-color="#5B6BFF"/>
      <stop offset="1" stop-color="#FF4D8D"/>
    </linearGradient>
  </defs>
  <path fill="url(#sf-g)" d="M8 1.2c2 0 3.6 1 3.6 2.6 0 1-.7 1.8-1.9 2.3C8.3 6.7 7 7.2 7 8.4c0 .9.8 1.5 2.2 1.9.4.1.6.5.5.9-.1.4-.5.6-.9.5C6.4 11.1 5 9.8 5 8.1c0-1.7 1.2-2.6 2.7-3.2 1.2-.5 1.9-.9 1.9-1.6 0-.6-.7-1-1.6-1-1 0-1.7.3-2.3.9-.3.3-.8.3-1.1 0-.3-.3-.3-.8 0-1.1.7-.8 1.8-1.3 3.4-1.3Z"/>
  <path fill="url(#sf-g)" d="M8 14.8c-2 0-3.6-1-3.6-2.6 0-1 .7-1.8 1.9-2.3C9.7 9.3 11 8.8 11 7.6c0-.9-.8-1.5-2.2-1.9-.4-.1-.6-.5-.5-.9.1-.4.5-.6.9-.5 2.4.6 3.8 1.9 3.8 3.6 0 1.7-1.2 2.6-2.7 3.2-1.2.5-1.9.9-1.9 1.6 0 .6.7 1 1.6 1 1 0 1.7-.3 2.3-.9.3-.3.8-.3 1.1 0 .3.3.3.8 0 1.1-.7.8-1.8 1.3-3.4 1.3Z"/>
</svg>
